<svg xmlns="http://www.w3.org/2000/svg" width="512" height="512" viewBox="0 0 512 512">
<defs>
  <radialGradient id="bg" cx="50%" cy="42%" r="65%">
    <stop offset="0%" stop-color="#1a1030"/>
    <stop offset="100%" stop-color="#07060d"/>
  </radialGradient>
  <linearGradient id="outer" x1="256" y1="20" x2="256" y2="256" gradientUnits="userSpaceOnUse">
    <stop offset="0%" stop-color="#a78bfa"/>
    <stop offset="100%" stop-color="#6d28d9"/>
  </linearGradient>
  <linearGradient id="mid" x1="256" y1="100" x2="256" y2="256" gradientUnits="userSpaceOnUse">
    <stop offset="0%" stop-color="#c4b5fd"/>
    <stop offset="100%" stop-color="#7c3aed"/>
  </linearGradient>
  <radialGradient id="core" cx="50%" cy="50%" r="50%">
    <stop offset="0%" stop-color="#8b5cf6"/>
    <stop offset="100%" stop-color="#5b21b6"/>
  </radialGradient>
</defs>
<rect width="512" height="512" rx="112" fill="url(#bg)"/>
<circle cx="256" cy="256" r="236" fill="none" stroke="#7c3aed" stroke-opacity="0.25" stroke-width="2"/>
<circle cx="482.0" cy="256.0" r="3.2" fill="#a78bfa"/><circle cx="478.6" cy="295.2" r="3.2" fill="#a78bfa"/><circle cx="468.4" cy="333.3" r="3.2" fill="#a78bfa"/><circle cx="451.7" cy="369.0" r="3.2" fill="#a78bfa"/><circle cx="429.1" cy="401.3" r="3.2" fill="#a78bfa"/><circle cx="401.3" cy="429.1" r="3.2" fill="#a78bfa"/><circle cx="369.0" cy="451.7" r="3.2" fill="#a78bfa"/><circle cx="333.3" cy="468.4" r="3.2" fill="#a78bfa"/><circle cx="295.2" cy="478.6" r="3.2" fill="#a78bfa"/><circle cx="256.0" cy="482.0" r="3.2" fill="#a78bfa"/><circle cx="216.8" cy="478.6" r="3.2" fill="#a78bfa"/><circle cx="178.7" cy="468.4" r="3.2" fill="#a78bfa"/><circle cx="143.0" cy="451.7" r="3.2" fill="#a78bfa"/><circle cx="110.7" cy="429.1" r="3.2" fill="#a78bfa"/><circle cx="82.9" cy="401.3" r="3.2" fill="#a78bfa"/><circle cx="60.3" cy="369.0" r="3.2" fill="#a78bfa"/><circle cx="43.6" cy="333.3" r="3.2" fill="#a78bfa"/><circle cx="33.4" cy="295.2" r="3.2" fill="#a78bfa"/><circle cx="30.0" cy="256.0" r="3.2" fill="#a78bfa"/><circle cx="33.4" cy="216.8" r="3.2" fill="#a78bfa"/><circle cx="43.6" cy="178.7" r="3.2" fill="#a78bfa"/><circle cx="60.3" cy="143.0" r="3.2" fill="#a78bfa"/><circle cx="82.9" cy="110.7" r="3.2" fill="#a78bfa"/><circle cx="110.7" cy="82.9" r="3.2" fill="#a78bfa"/><circle cx="143.0" cy="60.3" r="3.2" fill="#a78bfa"/><circle cx="178.7" cy="43.6" r="3.2" fill="#a78bfa"/><circle cx="216.8" cy="33.4" r="3.2" fill="#a78bfa"/><circle cx="256.0" cy="30.0" r="3.2" fill="#a78bfa"/><circle cx="295.2" cy="33.4" r="3.2" fill="#a78bfa"/><circle cx="333.3" cy="43.6" r="3.2" fill="#a78bfa"/><circle cx="369.0" cy="60.3" r="3.2" fill="#a78bfa"/><circle cx="401.3" cy="82.9" r="3.2" fill="#a78bfa"/><circle cx="429.1" cy="110.7" r="3.2" fill="#a78bfa"/><circle cx="451.7" cy="143.0" r="3.2" fill="#a78bfa"/><circle cx="468.4" cy="178.7" r="3.2" fill="#a78bfa"/><circle cx="478.6" cy="216.8" r="3.2" fill="#a78bfa"/>
<path d="M256 28 C 286 99.1, 274 186, 256 192 C 238 186, 226 99.1, 256 28 Z" fill="url(#outer)" transform="rotate(0 256 256)"/><path d="M256 28 C 286 99.1, 274 186, 256 192 C 238 186, 226 99.1, 256 28 Z" fill="url(#outer)" transform="rotate(22.5 256 256)"/><path d="M256 28 C 286 99.1, 274 186, 256 192 C 238 186, 226 99.1, 256 28 Z" fill="url(#outer)" transform="rotate(45 256 256)"/><path d="M256 28 C 286 99.1, 274 186, 256 192 C 238 186, 226 99.1, 256 28 Z" fill="url(#outer)" transform="rotate(67.5 256 256)"/><path d="M256 28 C 286 99.1, 274 186, 256 192 C 238 186, 226 99.1, 256 28 Z" fill="url(#outer)" transform="rotate(90 256 256)"/><path d="M256 28 C 286 99.1, 274 186, 256 192 C 238 186, 226 99.1, 256 28 Z" fill="url(#outer)" transform="rotate(112.5 256 256)"/><path d="M256 28 C 286 99.1, 274 186, 256 192 C 238 186, 226 99.1, 256 28 Z" fill="url(#outer)" transform="rotate(135 256 256)"/><path d="M256 28 C 286 99.1, 274 186, 256 192 C 238 186, 226 99.1, 256 28 Z" fill="url(#outer)" transform="rotate(157.5 256 256)"/><path d="M256 28 C 286 99.1, 274 186, 256 192 C 238 186, 226 99.1, 256 28 Z" fill="url(#outer)" transform="rotate(180 256 256)"/><path d="M256 28 C 286 99.1, 274 186, 256 192 C 238 186, 226 99.1, 256 28 Z" fill="url(#outer)" transform="rotate(202.5 256 256)"/><path d="M256 28 C 286 99.1, 274 186, 256 192 C 238 186, 226 99.1, 256 28 Z" fill="url(#outer)" transform="rotate(225 256 256)"/><path d="M256 28 C 286 99.1, 274 186, 256 192 C 238 186, 226 99.1, 256 28 Z" fill="url(#outer)" transform="rotate(247.5 256 256)"/><path d="M256 28 C 286 99.1, 274 186, 256 192 C 238 186, 226 99.1, 256 28 Z" fill="url(#outer)" transform="rotate(270 256 256)"/><path d="M256 28 C 286 99.1, 274 186, 256 192 C 238 186, 226 99.1, 256 28 Z" fill="url(#outer)" transform="rotate(292.5 256 256)"/><path d="M256 28 C 286 99.1, 274 186, 256 192 C 238 186, 226 99.1, 256 28 Z" fill="url(#outer)" transform="rotate(315 256 256)"/><path d="M256 28 C 286 99.1, 274 186, 256 192 C 238 186, 226 99.1, 256 28 Z" fill="url(#outer)" transform="rotate(337.5 256 256)"/>
<path d="M256 106 C 298 144.7, 281.2 192, 256 198 C 230.8 192, 214 144.7, 256 106 Z" fill="url(#mid)" transform="rotate(0 256 256)"/><path d="M256 106 C 298 144.7, 281.2 192, 256 198 C 230.8 192, 214 144.7, 256 106 Z" fill="url(#mid)" transform="rotate(30 256 256)"/><path d="M256 106 C 298 144.7, 281.2 192, 256 198 C 230.8 192, 214 144.7, 256 106 Z" fill="url(#mid)" transform="rotate(60 256 256)"/><path d="M256 106 C 298 144.7, 281.2 192, 256 198 C 230.8 192, 214 144.7, 256 106 Z" fill="url(#mid)" transform="rotate(90 256 256)"/><path d="M256 106 C 298 144.7, 281.2 192, 256 198 C 230.8 192, 214 144.7, 256 106 Z" fill="url(#mid)" transform="rotate(120 256 256)"/><path d="M256 106 C 298 144.7, 281.2 192, 256 198 C 230.8 192, 214 144.7, 256 106 Z" fill="url(#mid)" transform="rotate(150 256 256)"/><path d="M256 106 C 298 144.7, 281.2 192, 256 198 C 230.8 192, 214 144.7, 256 106 Z" fill="url(#mid)" transform="rotate(180 256 256)"/><path d="M256 106 C 298 144.7, 281.2 192, 256 198 C 230.8 192, 214 144.7, 256 106 Z" fill="url(#mid)" transform="rotate(210 256 256)"/><path d="M256 106 C 298 144.7, 281.2 192, 256 198 C 230.8 192, 214 144.7, 256 106 Z" fill="url(#mid)" transform="rotate(240 256 256)"/><path d="M256 106 C 298 144.7, 281.2 192, 256 198 C 230.8 192, 214 144.7, 256 106 Z" fill="url(#mid)" transform="rotate(270 256 256)"/><path d="M256 106 C 298 144.7, 281.2 192, 256 198 C 230.8 192, 214 144.7, 256 106 Z" fill="url(#mid)" transform="rotate(300 256 256)"/><path d="M256 106 C 298 144.7, 281.2 192, 256 198 C 230.8 192, 214 144.7, 256 106 Z" fill="url(#mid)" transform="rotate(330 256 256)"/>
<circle cx="256" cy="256" r="62" fill="url(#core)"/>
<circle cx="256" cy="256" r="62" fill="none" stroke="#c4b5fd" stroke-width="2" stroke-opacity="0.6"/>
<g fill="#ffffff" transform="translate(256 262) scale(1.0)">
  <ellipse cx="-26" cy="-8" rx="11" ry="15"/>
  <ellipse cx="-9" cy="-22" rx="11" ry="15"/>
  <ellipse cx="9" cy="-22" rx="11" ry="15"/>
  <ellipse cx="26" cy="-8" rx="11" ry="15"/>
  <path d="M0 -8 C -22 -8 -34 6 -34 22 C -34 38 -16 44 0 44 C 16 44 34 38 34 22 C 34 6 22 -8 0 -8 Z"/>
</g>
</svg>